<svg version="1.1" xmlns="http://www.w3.org/2000/svg" viewBox="0 0 866.8608963422017 1138.3822555211134" width="866.8608963422017" height="1138.3822555211134" filter="invert(93%) hue-rotate(180deg)">
  <!-- svg-source:excalidraw -->
  
  <defs>
    <style class="style-fonts">
      @font-face {
        font-family: "Virgil";
        src: url("https://excalidraw.com/Virgil.woff2");
      }
      @font-face {
        font-family: "Cascadia";
        src: url("https://excalidraw.com/Cascadia.woff2");
      }
    </style>
    
  </defs>
  <rect x="0" y="0" width="866.8608963422017" height="1138.3822555211134" fill="#ffffff"></rect><g stroke-linecap="round" transform="translate(36.190398106378666 302.3223544898144) rotate(0 52.68896194899253 67.5908905810308)"><path d="M26.34 0 M26.34 0 C37.24 0.1, 48.37 0.25, 79.03 0 M26.34 0 C47.2 0.02, 67.77 -0.59, 79.03 0 M79.03 0 C96.34 -1.7, 106.28 10.62, 105.38 26.34 M79.03 0 C96.41 -1.63, 103.82 7.81, 105.38 26.34 M105.38 26.34 C103.68 53.77, 106.58 82.11, 105.38 108.84 M105.38 26.34 C105.72 56.61, 105.33 85.52, 105.38 108.84 M105.38 108.84 C103.69 127.19, 97.77 137.06, 79.03 135.18 M105.38 108.84 C105.68 128.42, 98.74 135.31, 79.03 135.18 M79.03 135.18 C62.77 133.76, 48.14 134.39, 26.34 135.18 M79.03 135.18 C61.54 135.09, 41.43 134.33, 26.34 135.18 M26.34 135.18 C9.84 136.74, -1.32 127.25, 0 108.84 M26.34 135.18 C10.67 136.26, -0.33 126.76, 0 108.84 M0 108.84 C-0.76 75.5, -0.2 42.37, 0 26.34 M0 108.84 C-0.22 92.41, 0.79 75.98, 0 26.34 M0 26.34 C-0.15 7.53, 7.39 0.62, 26.34 0 M0 26.34 C1.03 6.85, 10.26 0.91, 26.34 0" stroke="#1e1e1e" stroke-width="1" fill="none"></path></g><g stroke-linecap="round" transform="translate(727.4214212852718 297.4204258577761) rotate(0 52.68896194899253 67.5908905810308)"><path d="M26.34 0 M26.34 0 C43.16 -1.01, 60.64 1.6, 79.03 0 M26.34 0 C43.55 0.36, 61.26 -0.74, 79.03 0 M79.03 0 C96.37 1.76, 103.69 8.14, 105.38 26.34 M79.03 0 C96.1 1.7, 104.47 10.72, 105.38 26.34 M105.38 26.34 C103.65 54.08, 104.91 85.32, 105.38 108.84 M105.38 26.34 C104.39 59.32, 104.15 92.09, 105.38 108.84 M105.38 108.84 C103.97 124.86, 98.56 134.5, 79.03 135.18 M105.38 108.84 C105.34 127.25, 98.77 137.36, 79.03 135.18 M79.03 135.18 C70.12 136.97, 57.63 134.97, 26.34 135.18 M79.03 135.18 C65.28 135.21, 53.53 135.72, 26.34 135.18 M26.34 135.18 C8.71 135.79, -1.78 126.66, 0 108.84 M26.34 135.18 C9.96 136.26, 1.04 127.32, 0 108.84 M0 108.84 C-0.68 89.97, -2.35 71.7, 0 26.34 M0 108.84 C-1.05 86.4, -0.35 64.15, 0 26.34 M0 26.34 C0.41 9.46, 8.74 1.85, 26.34 0 M0 26.34 C0.46 10.45, 10.26 -0.16, 26.34 0" stroke="#1e1e1e" stroke-width="1" fill="none"></path></g><g transform="translate(775.1103908636588 352.51131643880694) rotate(0 4.999992370605469 12.5)"><text x="4.999992370605469" y="0" font-family="Virgil, Segoe UI Emoji" font-size="20px" fill="#1e1e1e" text-anchor="middle" style="white-space: pre;" direction="ltr" dominant-baseline="text-before-edge"></text></g><g stroke-linecap="round" transform="translate(451.679338833227 11.235122442617694) rotate(0 96.5 47)"><path d="M23.5 0 M23.5 0 C68.02 -1.38, 110.29 0.25, 169.5 0 M23.5 0 C72.52 1.84, 120.51 0.23, 169.5 0 M169.5 0 C184.38 0.8, 192.19 5.88, 193 23.5 M169.5 0 C183.85 -0.5, 191.13 9.35, 193 23.5 M193 23.5 C194.01 34.68, 195 43.27, 193 70.5 M193 23.5 C192.9 33.63, 193.26 44.1, 193 70.5 M193 70.5 C192.05 86.18, 185.62 92.59, 169.5 94 M193 70.5 C195.16 84.83, 185.4 95.95, 169.5 94 M169.5 94 C118.5 95.08, 65.59 94.42, 23.5 94 M169.5 94 C112.05 92.47, 55.22 92.83, 23.5 94 M23.5 94 C6.29 94.17, -0.28 86.74, 0 70.5 M23.5 94 C8.86 93.64, 1.27 88.43, 0 70.5 M0 70.5 C0.67 53.01, 0.25 39.43, 0 23.5 M0 70.5 C0.43 61.04, -0.15 51.16, 0 23.5 M0 23.5 C0.35 8.83, 9.57 1.59, 23.5 0 M0 23.5 C-1.12 9.11, 6.74 -2.26, 23.5 0" stroke="#1e1e1e" stroke-width="1" fill="none"></path></g><g transform="translate(482.1794151271723 33.235122442617694) rotate(0 65.99992370605469 25)"><text x="65.99992370605469" y="0" font-family="Virgil, Segoe UI Emoji" font-size="20px" fill="#1e1e1e" text-anchor="middle" style="white-space: pre;" direction="ltr" dominant-baseline="text-before-edge">Users Voting </text><text x="65.99992370605469" y="25" font-family="Virgil, Segoe UI Emoji" font-size="20px" fill="#1e1e1e" text-anchor="middle" style="white-space: pre;" direction="ltr" dominant-baseline="text-before-edge">Dashboard</text></g><g stroke-linecap="round" transform="translate(222.9329869276021 10) rotate(0 96.50000000000006 47)"><path d="M23.5 0 M23.5 0 C61.74 1.47, 95.93 3.03, 169.5 0 M23.5 0 C54.78 -1.31, 86.82 -0.66, 169.5 0 M169.5 0 C185.72 0.26, 192.01 7.61, 193 23.5 M169.5 0 C186.05 -0.32, 191.26 7.29, 193 23.5 M193 23.5 C193.13 41.92, 192.1 57.01, 193 70.5 M193 23.5 C192.3 35.14, 193.13 48.4, 193 70.5 M193 70.5 C193.7 87.92, 184.95 94.66, 169.5 94 M193 70.5 C193.01 86.02, 183.71 93.8, 169.5 94 M169.5 94 C140.87 92.13, 110.1 91.31, 23.5 94 M169.5 94 C126.3 94.99, 83.18 94.39, 23.5 94 M23.5 94 C5.98 94.2, 0.79 84.65, 0 70.5 M23.5 94 C10.09 94.7, 1.47 84.49, 0 70.5 M0 70.5 C0.38 56.76, -1.47 46.33, 0 23.5 M0 70.5 C0.52 52.58, -0.62 33.34, 0 23.5 M0 23.5 C1.31 9.67, 8.13 1.36, 23.5 0 M0 23.5 C-0.83 7.18, 9.69 -2.23, 23.5 0" stroke="#1e1e1e" stroke-width="1" fill="none"></path></g><g transform="translate(252.84305925426224 32) rotate(0 66.58992767333984 25)"><text x="66.58992767333984" y="0" font-family="Virgil, Segoe UI Emoji" font-size="20px" fill="#1e1e1e" text-anchor="middle" style="white-space: pre;" direction="ltr" dominant-baseline="text-before-edge">Admin Topics </text><text x="66.58992767333984" y="25" font-family="Virgil, Segoe UI Emoji" font-size="20px" fill="#1e1e1e" text-anchor="middle" style="white-space: pre;" direction="ltr" dominant-baseline="text-before-edge">Dashboard</text></g><g stroke-linecap="round" transform="translate(288.4757714376226 1069.3822555211134) rotate(0 146.99999999999994 29.5)"><path d="M14.75 0 M14.75 0 C114.66 -1.03, 215.05 0.39, 279.25 0 M14.75 0 C68.58 1.91, 123.52 2.07, 279.25 0 M279.25 0 C289.26 -0.56, 292.66 5.23, 294 14.75 M279.25 0 C289.84 -0.52, 292.41 6.07, 294 14.75 M294 14.75 C293.72 19.95, 293.47 26.45, 294 44.25 M294 14.75 C294.41 25.1, 294.8 36.09, 294 44.25 M294 44.25 C295.44 55.88, 289.43 59.6, 279.25 59 M294 44.25 C295.89 55.59, 287.69 60.19, 279.25 59 M279.25 59 C175.11 57.85, 72.89 57.44, 14.75 59 M279.25 59 C195.23 60.84, 112.02 59.76, 14.75 59 M14.75 59 C4.93 60.54, 0.32 53.84, 0 44.25 M14.75 59 C6.72 59.61, 0.83 53.71, 0 44.25 M0 44.25 C-0.56 36.17, -0.84 31.99, 0 14.75 M0 44.25 C-0.36 37.55, 0.9 30.27, 0 14.75 M0 14.75 C1.12 6.85, 6.61 -0.57, 14.75 0 M0 14.75 C1.07 6.87, 6.99 0.9, 14.75 0" stroke="#1e1e1e" stroke-width="1" fill="none"></path></g><g transform="translate(356.3858590230718 1086.3822555211134) rotate(0 79.08991241455072 12.5)"><text x="79.08991241455078" y="0" font-family="Virgil, Segoe UI Emoji" font-size="20px" fill="#1e1e1e" text-anchor="middle" style="white-space: pre;" direction="ltr" dominant-baseline="text-before-edge">Logs Dashboard</text></g><g stroke-linecap="round" transform="translate(462.8270390889626 219.34116251443572) rotate(0 81 45)"><path d="M22.5 0 M22.5 0 C49.92 -1.06, 79.67 1.34, 139.5 0 M22.5 0 C46.94 0.05, 72.31 0.48, 139.5 0 M139.5 0 C154.79 -1.91, 161.5 6.82, 162 22.5 M139.5 0 C154.03 -0.57, 162.86 6.41, 162 22.5 M162 22.5 C160.69 33.76, 161.72 41.35, 162 67.5 M162 22.5 C162.64 33.26, 162.51 45.43, 162 67.5 M162 67.5 C162.12 82.02, 153.03 88.28, 139.5 90 M162 67.5 C161.42 84.25, 155.55 91.93, 139.5 90 M139.5 90 C102.56 90.16, 66.36 89.16, 22.5 90 M139.5 90 C112.7 89, 88.05 88.61, 22.5 90 M22.5 90 C9.41 89.51, -0.28 81.49, 0 67.5 M22.5 90 C7.88 91.33, 1 83.6, 0 67.5 M0 67.5 C1.27 58.6, -1.46 46.37, 0 22.5 M0 67.5 C0.69 54.01, -0.12 40.07, 0 22.5 M0 22.5 C1.15 6.17, 8.93 -1.04, 22.5 0 M0 22.5 C-0.21 7.87, 5.43 -1.5, 22.5 0" stroke="#1e1e1e" stroke-width="1" fill="none"></path></g><g transform="translate(473.5071156880837 251.84116251443572) rotate(0 70.3199234008789 12.5)"><text x="70.3199234008789" y="0" font-family="Virgil, Segoe UI Emoji" font-size="20px" fill="#1e1e1e" text-anchor="middle" style="white-space: pre;" direction="ltr" dominant-baseline="text-before-edge">Voters Service</text></g><g stroke-linecap="round" transform="translate(237.9381502000739 218.3411625144356) rotate(0 81 45)"><path d="M22.5 0 M22.5 0 C59.84 -0.12, 95.8 -1.86, 139.5 0 M22.5 0 C48.94 -0.11, 76.36 1.34, 139.5 0 M139.5 0 C153.59 -1.37, 161.76 8.01, 162 22.5 M139.5 0 C155.71 0.7, 160.01 7.47, 162 22.5 M162 22.5 C161.18 31.32, 160.58 43.6, 162 67.5 M162 22.5 C162.25 40.21, 162.68 57.56, 162 67.5 M162 67.5 C161.07 81.8, 156.17 89.31, 139.5 90 M162 67.5 C162.3 80.92, 156.09 90.91, 139.5 90 M139.5 90 C105.53 91.06, 70.96 90.08, 22.5 90 M139.5 90 C114.31 90.3, 88.36 90.71, 22.5 90 M22.5 90 C7.68 90.78, -1.85 81.14, 0 67.5 M22.5 90 C5.84 91.21, 0.76 83.17, 0 67.5 M0 67.5 C-1.08 54.36, -0.76 37.95, 0 22.5 M0 67.5 C0.59 52.3, -0.73 36.57, 0 22.5 M0 22.5 C-0.99 9.38, 5.64 0.69, 22.5 0 M0 22.5 C1.99 8.62, 6.67 -1.37, 22.5 0" stroke="#1e1e1e" stroke-width="1" fill="none"></path></g><g transform="translate(254.73821428698795 250.8411625144356) rotate(0 64.19993591308594 12.5)"><text x="64.19993591308594" y="0" font-family="Virgil, Segoe UI Emoji" font-size="20px" fill="#1e1e1e" text-anchor="middle" style="white-space: pre;" direction="ltr" dominant-baseline="text-before-edge">Admin Service</text></g><g stroke-linecap="round" transform="translate(347.5965698339148 828.9074979599307) rotate(0 80.99999999999994 45)"><path d="M22.5 0 M22.5 0 C63.41 -0.26, 103.75 1.41, 139.5 0 M22.5 0 C45.7 -1.02, 69.15 -0.02, 139.5 0 M139.5 0 C152.94 0.34, 162.66 8.97, 162 22.5 M139.5 0 C155.31 1.55, 162.93 6.69, 162 22.5 M162 22.5 C163.27 35.94, 160.5 51.74, 162 67.5 M162 22.5 C162.73 37.51, 161.45 53.63, 162 67.5 M162 67.5 C161.19 83.95, 152.84 91.29, 139.5 90 M162 67.5 C163.92 82.16, 153.51 87.78, 139.5 90 M139.5 90 C113.76 87.9, 86.04 90.31, 22.5 90 M139.5 90 C111.62 90.94, 83.98 91.4, 22.5 90 M22.5 90 C8.22 89.26, -1.43 82.93, 0 67.5 M22.5 90 C6.94 88.51, -1.4 82.44, 0 67.5 M0 67.5 C0.34 50.64, 0.71 32.35, 0 22.5 M0 67.5 C0.62 56.49, 0.36 43.37, 0 22.5 M0 22.5 C1.72 5.7, 8.39 -1.76, 22.5 0 M0 22.5 C-0.96 7.57, 5.77 0.64, 22.5 0" stroke="#1e1e1e" stroke-width="1" fill="none"></path></g><g transform="translate(356.41664582268436 848.9074979599307) rotate(0 72.17992401123041 25)"><text x="72.17992401123047" y="0" font-family="Virgil, Segoe UI Emoji" font-size="20px" fill="#1e1e1e" text-anchor="middle" style="white-space: pre;" direction="ltr" dominant-baseline="text-before-edge">Centeralized </text><text x="72.17992401123047" y="25" font-family="Virgil, Segoe UI Emoji" font-size="20px" fill="#1e1e1e" text-anchor="middle" style="white-space: pre;" direction="ltr" dominant-baseline="text-before-edge">Logging Service</text></g><g stroke-linecap="round"><g transform="translate(748.4926380467815 327.2711431099342) rotate(0 30.233661305970145 32.630931234433376)" fill-rule="evenodd"><path d="M1.45 -1.08 L1.56 66.64 L13.48 69.82 L30.55 72.43 L49.26 69.15 L61.65 66.55 L59.81 -1.04 L52.58 -3.19 L29.71 -4.55 L9.6 -3.27 L2.01 -3.76 L0.87 0.75" stroke="none" stroke-width="0" fill="#ced4da" fill-rule="evenodd"></path><path d="M-0.68 0.77 C-0.65 10.64, -0.45 48.42, -0.21 59.48 C0.03 70.53, 0.2 65.48, 0.75 67.11 C1.29 68.74, 0.98 68.51, 3.07 69.26 C5.16 70.02, 8.48 71.07, 13.27 71.63 C18.07 72.19, 25.6 72.83, 31.83 72.62 C38.06 72.41, 46.25 71.02, 50.64 70.39 C55.03 69.75, 56.37 69.57, 58.15 68.83 C59.94 68.09, 60.76 67.44, 61.36 65.94 C61.95 64.44, 61.92 69.94, 61.73 59.85 C61.53 49.76, 60.31 15.28, 60.19 5.4 C60.07 -4.49, 61.8 2.01, 61.02 0.54 C60.24 -0.93, 57.64 -2.65, 55.5 -3.42 C53.36 -4.19, 52.34 -3.44, 48.16 -4.09 C43.98 -4.74, 36.03 -6.99, 30.42 -7.32 C24.82 -7.66, 19.31 -6.76, 14.53 -6.11 C9.75 -5.46, 4.23 -4.27, 1.73 -3.43 C-0.76 -2.6, 0.02 -1.57, -0.44 -1.1 C-0.89 -0.63, -0.88 -0.83, -0.99 -0.61 M1.17 0.12 C1.04 10.19, -1.24 50.24, -1.38 61.11 C-1.51 71.98, -0.41 63.76, 0.37 65.33 C1.15 66.89, 0.83 69.39, 3.28 70.52 C5.73 71.66, 10.14 71.92, 15.08 72.13 C20.03 72.34, 26.86 71.75, 32.96 71.8 C39.05 71.84, 47.12 72.87, 51.66 72.39 C56.2 71.91, 58.8 70.18, 60.21 68.9 C61.62 67.63, 60.24 66.36, 60.1 64.75 C59.96 63.15, 59.32 68.95, 59.35 59.26 C59.38 49.57, 60.18 16.39, 60.29 6.6 C60.4 -3.19, 60.84 2.35, 60 0.52 C59.16 -1.31, 57.36 -3.65, 55.27 -4.39 C53.18 -5.12, 52.07 -3.82, 47.46 -3.88 C42.85 -3.95, 32.92 -4.56, 27.61 -4.78 C22.31 -5, 19.62 -5.5, 15.63 -5.22 C11.64 -4.95, 6 -3.81, 3.68 -3.15 C1.36 -2.5, 2.21 -1.71, 1.73 -1.29 C1.24 -0.88, 1.25 -0.65, 0.76 -0.68" stroke="#000000" stroke-width="1" fill="none"></path></g></g><mask></mask><g stroke-linecap="round" transform="translate(748.1029097628003 320.3468944877334) rotate(0 30.198307453047732 6.107380491183449)"><path d="M36.65 0.5 C42.84 0.68, 50.09 0.88, 54.03 1.75 C57.98 2.62, 60.67 4.44, 60.33 5.72 C59.99 7, 56.15 8.52, 52.01 9.44 C47.88 10.36, 41.8 11.01, 35.51 11.25 C29.23 11.49, 19.94 11.56, 14.31 10.88 C8.68 10.21, 3.91 8.48, 1.72 7.2 C-0.47 5.91, -1.23 4.29, 1.2 3.19 C3.63 2.08, 9.06 0.97, 16.29 0.56 C23.52 0.16, 38.54 0.54, 44.58 0.76 C50.62 0.97, 52.57 1.89, 52.52 1.85 M42.5 1.22 C48.06 1.69, 53.91 3.09, 56.84 4.1 C59.77 5.12, 61.72 6.35, 60.08 7.33 C58.45 8.32, 52.53 9.34, 47.04 10.02 C41.54 10.7, 33.53 11.46, 27.12 11.43 C20.71 11.4, 13.28 10.6, 8.59 9.85 C3.9 9.09, -0.59 8.16, -1.03 6.91 C-1.47 5.66, 2.05 3.45, 5.94 2.33 C9.84 1.21, 15.94 0.54, 22.35 0.18 C28.76 -0.19, 40.66 -0.03, 44.38 0.14 C48.1 0.31, 44.85 0.92, 44.7 1.21" stroke="none" stroke-width="0" fill="#fff"></path><path d="M32.42 0.27 C38.38 0.16, 46.13 0.98, 50.69 1.91 C55.26 2.84, 58.96 4.66, 59.8 5.85 C60.63 7.04, 59.46 7.93, 55.73 9.06 C52.01 10.2, 43.66 12.16, 37.44 12.65 C31.22 13.13, 24.02 12.67, 18.42 11.99 C12.81 11.3, 6.77 9.7, 3.79 8.52 C0.82 7.35, -0.98 6.07, 0.59 4.95 C2.16 3.83, 7.39 2.63, 13.21 1.79 C19.02 0.95, 31.08 0.02, 35.5 -0.1 C39.91 -0.22, 39.54 1.07, 39.7 1.06 M30.58 -0.5 C36.66 -0.54, 44.6 -0.35, 49.4 0.39 C54.2 1.14, 58.32 2.27, 59.4 3.96 C60.47 5.64, 59.34 9.09, 55.83 10.51 C52.31 11.92, 44.66 12.31, 38.3 12.45 C31.93 12.59, 23.65 12.17, 17.62 11.35 C11.6 10.52, 4.9 8.71, 2.12 7.53 C-0.66 6.35, -0.49 5.15, 0.93 4.25 C2.34 3.34, 5.52 2.93, 10.6 2.11 C15.67 1.3, 27.9 -0.23, 31.39 -0.64 C34.89 -1.05, 31.42 -0.57, 31.56 -0.33" stroke="#000000" stroke-width="1" fill="none"></path></g><g transform="translate(763.1045832101973 347.730672600169) rotate(0 6.75201416015625 14.21018331903133)"><text x="0" y="0" font-family="Cascadia, Segoe UI Emoji" font-size="23.067417712559507px" fill="#495057" text-anchor="start" style="white-space: pre;" direction="ltr" dominant-baseline="text-before-edge">{</text></g><g transform="translate(780.4811690576986 348.1070134941124) rotate(0 6.793212890625 14.188221952248227)"><text x="0" y="0" font-family="Cascadia, Segoe UI Emoji" font-size="23.19774210641577px" fill="#495057" text-anchor="start" style="white-space: pre;" direction="ltr" dominant-baseline="text-before-edge">}</text></g><g transform="translate(740.1755943444629 399.91524628046704) rotate(0 38.49281311035156 10.210092130335738)"><text x="38.49281311035156" y="0" font-family="Virgil, Segoe UI Emoji" font-size="14.339344665730309px" fill="#000000" text-anchor="middle" style="white-space: pre;" direction="ltr" dominant-baseline="text-before-edge">Votings DB</text></g><g stroke-linecap="round" transform="translate(686.1722362616396 808.2762683137805) rotate(0 52.68896194899253 67.59089058103075)"><path d="M26.34 0 M26.34 0 C41.64 0.16, 57.48 0.2, 79.03 0 M26.34 0 C45.86 -0.72, 63.95 0.1, 79.03 0 M79.03 0 C97.09 0.99, 106.81 6.8, 105.38 26.34 M79.03 0 C94.99 -0.49, 106.35 10.42, 105.38 26.34 M105.38 26.34 C104.98 55.3, 106.3 89.3, 105.38 108.84 M105.38 26.34 C105.51 56.09, 105.22 86.2, 105.38 108.84 M105.38 108.84 C105.62 124.8, 94.66 134.81, 79.03 135.18 M105.38 108.84 C106.52 128.52, 97.1 136.95, 79.03 135.18 M79.03 135.18 C68.74 135.44, 57.26 136, 26.34 135.18 M79.03 135.18 C58.15 135.65, 36.88 133.75, 26.34 135.18 M26.34 135.18 C9.24 135.33, 1.54 127.76, 0 108.84 M26.34 135.18 C10.36 135.57, 1.44 126.37, 0 108.84 M0 108.84 C-0.68 82.6, -0.52 53.16, 0 26.34 M0 108.84 C-0.05 78.55, -0.21 48.05, 0 26.34 M0 26.34 C0.28 8.72, 8.46 -0.74, 26.34 0 M0 26.34 C-1.51 6.5, 10.84 1.36, 26.34 0" stroke="#1e1e1e" stroke-width="1" fill="none"></path></g><g transform="translate(733.8612058400266 863.3671588948112) rotate(0 4.999992370605469 12.5)"><text x="4.999992370605469" y="0" font-family="Virgil, Segoe UI Emoji" font-size="20px" fill="#1e1e1e" text-anchor="middle" style="white-space: pre;" direction="ltr" dominant-baseline="text-before-edge"></text></g><g stroke-linecap="round"><g transform="translate(708.1852452116779 836.4946417368662) rotate(0 30.175906916280496 32.73417595919136)" fill-rule="evenodd"><path d="M0.32 0.42 L-0.08 67.48 L15.54 72.6 L30.79 71.73 L51.91 72.04 L60.22 65.06 L60.59 -1.37 L54.09 -2.84 L30.26 -5.53 L6.76 -4.59 L4.12 -0.94 L-1.48 0.15" stroke="none" stroke-width="0" fill="#ced4da" fill-rule="evenodd"></path><path d="M-0.24 0.13 C-0.11 10.19, 0.63 49.06, 0.87 60.15 C1.11 71.23, 0.65 65.19, 1.2 66.63 C1.75 68.07, 2.09 67.98, 4.19 68.77 C6.3 69.56, 9.11 70.79, 13.83 71.35 C18.55 71.92, 26.66 72.15, 32.53 72.16 C38.41 72.18, 44.42 72.11, 49.07 71.47 C53.72 70.83, 58.57 69.27, 60.44 68.34 C62.31 67.41, 60.29 67.2, 60.3 65.87 C60.31 64.55, 60.54 70.5, 60.48 60.38 C60.43 50.27, 59.91 15.35, 59.96 5.19 C60.02 -4.96, 61.37 1, 60.79 -0.54 C60.22 -2.07, 58.5 -3.13, 56.5 -4.02 C54.5 -4.91, 53.48 -5.7, 48.78 -5.87 C44.09 -6.04, 34.19 -4.94, 28.31 -5.06 C22.44 -5.17, 17.92 -6.83, 13.51 -6.57 C9.1 -6.31, 4.23 -4.69, 1.86 -3.51 C-0.51 -2.33, -0.35 -0.09, -0.73 0.51 C-1.11 1.1, -0.43 0, -0.41 0.08 M-1.82 -0.85 C-1.8 8.9, -0.21 47.56, 0.27 58.47 C0.75 69.38, 0.88 62.71, 1.06 64.6 C1.24 66.48, -0.53 68.59, 1.34 69.77 C3.21 70.96, 6.82 71.48, 12.27 71.7 C17.72 71.93, 27.86 71.33, 34.03 71.11 C40.19 70.89, 44.93 70.87, 49.26 70.38 C53.6 69.89, 57.89 69.12, 60.04 68.16 C62.19 67.2, 61.97 66, 62.15 64.65 C62.33 63.3, 61.47 69.79, 61.11 60.07 C60.74 50.34, 60.19 16.49, 59.95 6.29 C59.7 -3.91, 60.18 0.2, 59.65 -1.12 C59.13 -2.44, 58.67 -0.73, 56.79 -1.64 C54.92 -2.56, 53.2 -6.05, 48.41 -6.6 C43.62 -7.16, 33.78 -5.1, 28.06 -4.99 C22.34 -4.87, 18.1 -6.22, 14.06 -5.93 C10.03 -5.64, 6 -4.45, 3.87 -3.27 C1.74 -2.09, 1.65 0.55, 1.28 1.16 C0.91 1.77, 1.94 0.62, 1.65 0.37" stroke="#000000" stroke-width="1" fill="none"></path></g></g><mask></mask><g stroke-linecap="round" transform="translate(707.7955169276967 829.5703931146654) rotate(0 30.198307453047732 6.107380491183449)"><path d="M25.63 0.13 C31.71 -0.26, 42.02 0.24, 47.5 0.88 C52.99 1.51, 56.65 2.52, 58.53 3.93 C60.41 5.35, 61.25 7.96, 58.78 9.36 C56.31 10.77, 49.72 12.02, 43.72 12.37 C37.72 12.71, 28.9 11.78, 22.79 11.43 C16.68 11.07, 10.93 11.3, 7.04 10.24 C3.15 9.18, -0.68 6.53, -0.56 5.08 C-0.44 3.63, 2.84 2.25, 7.78 1.56 C12.72 0.87, 24.87 1.2, 29.07 0.94 C33.26 0.68, 32.83 0.18, 32.95 -0.03 M24.85 0.1 C30.89 -0.22, 37.97 -1.06, 43.41 -0.68 C48.85 -0.29, 54.9 1.08, 57.48 2.42 C60.07 3.76, 60.95 5.93, 58.93 7.35 C56.91 8.77, 50.97 10.34, 45.35 10.94 C39.74 11.54, 31.45 10.95, 25.22 10.95 C18.99 10.95, 11.92 11.67, 7.96 10.93 C3.99 10.19, 1.62 8.15, 1.43 6.52 C1.24 4.9, 2.93 2.19, 6.8 1.18 C10.67 0.16, 21.98 0.67, 24.66 0.43 C27.35 0.2, 22.79 -0.54, 22.91 -0.24" stroke="none" stroke-width="0" fill="#fff"></path><path d="M41.57 0.22 C47.28 0.49, 53.21 1.86, 56.29 3.02 C59.37 4.18, 61.3 5.8, 60.04 7.17 C58.79 8.54, 53.61 10.34, 48.77 11.22 C43.93 12.1, 37.41 12.5, 31.03 12.47 C24.64 12.43, 15.58 11.87, 10.44 11.02 C5.3 10.17, 1.35 8.65, 0.2 7.35 C-0.94 6.05, 0.22 4.41, 3.59 3.21 C6.96 2, 13.32 0.61, 20.45 0.11 C27.58 -0.39, 41.23 0.07, 46.36 0.21 C51.49 0.35, 51.7 0.56, 51.26 0.94 M17.85 -0.44 C23.78 -0.9, 34.03 -0.63, 40.39 -0.2 C46.75 0.23, 52.52 0.9, 56.01 2.14 C59.49 3.38, 62.18 5.93, 61.28 7.24 C60.37 8.54, 55.65 8.93, 50.58 9.95 C45.5 10.98, 37.22 13.41, 30.84 13.37 C24.47 13.33, 17.43 10.47, 12.33 9.71 C7.24 8.95, 1.59 9.94, 0.27 8.83 C-1.05 7.71, 1.53 4.42, 4.42 3.01 C7.32 1.6, 15.22 0.66, 17.64 0.36 C20.06 0.06, 18.35 1.01, 18.93 1.22" stroke="#000000" stroke-width="1" fill="none"></path></g><g transform="translate(722.7971903750937 856.9541712271011) rotate(0 6.75201416015625 14.21018331903133)"><text x="0" y="0" font-family="Cascadia, Segoe UI Emoji" font-size="23.067417712559507px" fill="#495057" text-anchor="start" style="white-space: pre;" direction="ltr" dominant-baseline="text-before-edge">{</text></g><g transform="translate(740.1737762225949 857.3305121210444) rotate(0 6.793212890625 14.188221952248227)"><text x="0" y="0" font-family="Cascadia, Segoe UI Emoji" font-size="23.19774210641577px" fill="#495057" text-anchor="start" style="white-space: pre;" direction="ltr" dominant-baseline="text-before-edge">}</text></g><g transform="translate(699.8682015093592 909.1387449073991) rotate(0 38.49281311035156 10.210092130335738)"><text x="38.49281311035156" y="0" font-family="Virgil, Segoe UI Emoji" font-size="14.339344665730309px" fill="#000000" text-anchor="middle" style="white-space: pre;" direction="ltr" dominant-baseline="text-before-edge">Votings DB</text></g><g stroke-linecap="round"><g transform="translate(57.38152693567065 328.3822542210455) rotate(0 30.94464486688321 32.8883592236146)" fill-rule="evenodd"><path d="M1.73 1.4 L0.09 68.26 L13.17 70.77 L33.46 71.46 L50.4 71.25 L59.87 65.59 L61.61 -0.65 L52.97 -5.83 L30.04 -7.76 L8.42 -3.08 L2.9 -1.01 L1.29 1.02" stroke="none" stroke-width="0" fill="#ced4da" fill-rule="evenodd"></path><path d="M1.09 0.42 C0.86 10.56, -0.34 49.71, -0.4 60.47 C-0.46 71.23, 0.14 63.58, 0.72 64.96 C1.29 66.34, 0.77 67.55, 3.05 68.76 C5.33 69.97, 9.34 71.62, 14.39 72.23 C19.44 72.84, 27.43 72.46, 33.36 72.41 C39.28 72.36, 45.77 72.75, 49.94 71.94 C54.11 71.13, 56.6 68.42, 58.35 67.54 C60.11 66.66, 59.94 68.04, 60.48 66.65 C61.02 65.27, 61.41 69.52, 61.58 59.24 C61.74 48.95, 61.49 14.85, 61.47 4.94 C61.45 -4.97, 62.41 0.99, 61.44 -0.24 C60.48 -1.46, 57.83 -1.68, 55.68 -2.39 C53.52 -3.11, 53.02 -3.7, 48.53 -4.52 C44.03 -5.34, 34.55 -7.16, 28.73 -7.29 C22.9 -7.41, 17.81 -5.94, 13.56 -5.27 C9.3 -4.61, 5.28 -4, 3.19 -3.28 C1.1 -2.56, 1.39 -1.66, 1.02 -0.94 C0.65 -0.22, 1.05 0.68, 0.96 1.03 M0.2 -0.41 C0.28 9.46, 1.98 47.94, 2 58.96 C2.02 69.98, 0.11 63.91, 0.32 65.71 C0.53 67.51, 1.12 68.53, 3.25 69.75 C5.39 70.98, 8.39 72.75, 13.12 73.03 C17.85 73.32, 25.38 71.81, 31.63 71.48 C37.87 71.16, 45.77 71.86, 50.59 71.1 C55.4 70.35, 59.16 67.82, 60.52 66.94 C61.88 66.07, 58.99 67.28, 58.76 65.84 C58.53 64.4, 58.54 68.3, 59.12 58.31 C59.7 48.33, 61.99 15.74, 62.24 5.91 C62.5 -3.92, 61.76 0.79, 60.64 -0.66 C59.52 -2.12, 57.64 -2.17, 55.54 -2.82 C53.43 -3.47, 52.49 -4.23, 48.01 -4.55 C43.54 -4.86, 34.33 -4.82, 28.69 -4.73 C23.04 -4.63, 18.55 -4.25, 14.14 -3.95 C9.74 -3.65, 4.56 -3.41, 2.25 -2.92 C-0.06 -2.44, 0.65 -1.84, 0.29 -1.05 C-0.08 -0.26, -0.08 1.65, 0.08 1.82" stroke="#000000" stroke-width="1" fill="none"></path></g></g><mask></mask><g stroke-linecap="round" transform="translate(56.991798651689464 321.4580055988447) rotate(0 30.198307453047732 6.107380491183449)"><path d="M38.33 0.7 C44.48 0.73, 51.72 1.16, 55.51 2.11 C59.3 3.06, 61.8 5.02, 61.07 6.42 C60.34 7.82, 55.94 9.42, 51.13 10.52 C46.32 11.62, 38.63 12.8, 32.19 13.02 C25.76 13.23, 17.67 12.77, 12.51 11.79 C7.36 10.81, 2.78 8.39, 1.26 7.16 C-0.25 5.93, 0.9 5.63, 3.41 4.39 C5.93 3.16, 10.09 0.39, 16.34 -0.27 C22.59 -0.92, 36.33 0.39, 40.93 0.44 C45.54 0.5, 44.26 0.08, 43.96 0.05 M20.69 1.19 C26.2 1.1, 35.25 1.61, 41.4 1.95 C47.54 2.29, 54.56 2.12, 57.55 3.24 C60.54 4.36, 60.94 7.36, 59.32 8.69 C57.71 10.03, 53.1 10.88, 47.86 11.26 C42.61 11.64, 34.3 10.91, 27.85 10.98 C21.41 11.05, 13.73 12.16, 9.21 11.65 C4.7 11.14, 1.59 9.57, 0.77 7.94 C-0.04 6.3, 0.67 3.04, 4.34 1.86 C8 0.69, 20.03 1.08, 22.77 0.9 C25.51 0.72, 21.04 0.92, 20.79 0.76" stroke="none" stroke-width="0" fill="#fff"></path><path d="M44.31 0.54 C49.87 1.32, 55.95 3.21, 58.52 4.48 C61.09 5.75, 61.79 6.9, 59.74 8.17 C57.69 9.44, 51.96 11.5, 46.21 12.09 C40.46 12.69, 31.67 11.91, 25.24 11.74 C18.82 11.58, 11.77 12.13, 7.68 11.1 C3.59 10.07, 0.8 7.04, 0.71 5.58 C0.61 4.11, 3.09 3.23, 7.12 2.32 C11.15 1.41, 18.36 0.25, 24.89 0.13 C31.42 0.02, 42.25 1.38, 46.29 1.65 C50.34 1.91, 49.43 1.89, 49.15 1.72 M18.73 1.7 C24.14 1.27, 32.72 1.23, 39.18 1.56 C45.65 1.88, 53.81 2.49, 57.52 3.63 C61.23 4.78, 62.55 7.33, 61.44 8.42 C60.32 9.51, 55.94 9.63, 50.83 10.16 C45.72 10.69, 37.52 11.35, 30.79 11.59 C24.06 11.84, 15.6 12.3, 10.46 11.63 C5.32 10.96, 0.99 9.07, -0.06 7.57 C-1.11 6.07, 1.03 3.71, 4.14 2.63 C7.26 1.55, 15.98 1.47, 18.63 1.08 C21.29 0.7, 19.93 0.27, 20.05 0.33" stroke="#000000" stroke-width="1" fill="none"></path></g><g transform="translate(71.99347209908649 348.8417837112803) rotate(0 6.75201416015625 14.21018331903133)"><text x="0" y="0" font-family="Cascadia, Segoe UI Emoji" font-size="23.067417712559507px" fill="#495057" text-anchor="start" style="white-space: pre;" direction="ltr" dominant-baseline="text-before-edge">{</text></g><g transform="translate(89.37005794658774 349.2181246052238) rotate(0 6.793212890625 14.188221952248227)"><text x="0" y="0" font-family="Cascadia, Segoe UI Emoji" font-size="23.19774210641577px" fill="#495057" text-anchor="start" style="white-space: pre;" direction="ltr" dominant-baseline="text-before-edge">}</text></g><g transform="translate(51.06327778901584 401.02635739157824) rotate(0 36.4940185546875 10.210092130335738)"><text x="36.4940185546875" y="0" font-family="Virgil, Segoe UI Emoji" font-size="14.339344665730309px" fill="#000000" text-anchor="middle" style="white-space: pre;" direction="ltr" dominant-baseline="text-before-edge">Admins DB</text></g><g stroke-linecap="round" transform="translate(259.60481686674063 545.3411625144356) rotate(0 166.1111111111111 72.77777777777771)"><path d="M32 0 M32 0 C101.13 0.28, 168.13 1.07, 300.22 0 M32 0 C107.76 -1.14, 183.92 0.16, 300.22 0 M300.22 0 C322.13 1.29, 332.73 12.6, 332.22 32 M300.22 0 C320.53 -1.2, 332.8 8.44, 332.22 32 M332.22 32 C331.43 61.16, 332.99 94.44, 332.22 113.56 M332.22 32 C332.42 60.67, 332.83 88.62, 332.22 113.56 M332.22 113.56 C333.91 136.65, 322.91 145.03, 300.22 145.56 M332.22 113.56 C331.46 133.57, 319.26 146.87, 300.22 145.56 M300.22 145.56 C205.72 144.52, 115.34 144.25, 32 145.56 M300.22 145.56 C196.84 147.91, 92.75 147.76, 32 145.56 M32 145.56 C8.92 145.88, -0.82 135.1, 0 113.56 M32 145.56 C8.54 143.54, 1.46 136.81, 0 113.56 M0 113.56 C1.32 86.77, 0.25 62.2, 0 32 M0 113.56 C0.25 94.37, -0.2 76.37, 0 32 M0 32 C-1.13 10.91, 12.61 -0.18, 32 0 M0 32 C-0.71 11.46, 8.93 -1.61, 32 0" stroke="#1e1e1e" stroke-width="1" fill="none"></path></g><g stroke-linecap="round"><g transform="translate(389.68464099993355 624.8743348638263) rotate(0 44.11403058580112 -7.780874592876842)" fill-rule="evenodd"><path d="M1.67 -1.9 L-0.79 30.62 L4.19 37.24 L7.91 38.39 L70.79 39.14 L85.33 36.01 L85.84 31.48 L90.6 11.29 L85.98 -8.69 L88.11 -10.4 L79.71 -14.76 L58.3 -17.51 L53.24 -15.6 L51.65 -50.86 L49.44 -53.7 L36.96 -55.24 L34.65 -49.18 L33.95 -18.03 L31.37 -16.43 L20.04 -17.28 L16.12 -17.11 L16.59 -49.15 L13.64 -52.13 L0.71 -53.16 L-1.5 -40.74 L-0.56 0.83" stroke="none" stroke-width="0" fill="#fd7e14" fill-rule="evenodd"></path><path d="M-0.15 0.33 C-0.29 3.87, -0.29 16.19, 0.24 22.17 C0.77 28.15, 0.2 33.91, 3.03 36.23 C5.85 38.54, 9.75 36.07, 17.2 36.07 C24.65 36.07, 37.6 36.14, 47.74 36.21 C57.88 36.28, 71.18 37.16, 78.04 36.48 C84.9 35.8, 86.99 34.94, 88.91 32.14 C90.82 29.34, 89.78 25.09, 89.53 19.71 C89.27 14.33, 88.03 5.2, 87.39 -0.13 C86.74 -5.46, 87.1 -9.61, 85.65 -12.25 C84.21 -14.89, 82.16 -15.41, 78.73 -15.97 C75.31 -16.53, 69.26 -15.25, 65.12 -15.59 C60.98 -15.93, 55.96 -14.92, 53.89 -18.01 C51.81 -21.1, 53.05 -28.68, 52.65 -34.13 C52.25 -39.59, 52.84 -47.4, 51.46 -50.76 C50.08 -54.12, 47.18 -54.44, 44.36 -54.28 C41.54 -54.13, 36.32 -53.42, 34.56 -49.83 C32.79 -46.25, 34.07 -38.31, 33.79 -32.77 C33.51 -27.24, 34.35 -19.43, 32.86 -16.64 C31.37 -13.85, 27.22 -15.76, 24.86 -16.04 C22.49 -16.33, 20.12 -15.32, 18.69 -18.35 C17.27 -21.39, 16.69 -29.1, 16.33 -34.28 C15.96 -39.46, 17.92 -46.3, 16.5 -49.43 C15.09 -52.55, 10.58 -53.12, 7.84 -53.04 C5.1 -52.96, 1.35 -52.95, 0.05 -48.94 C-1.25 -44.93, -0.09 -37.27, 0.04 -28.99 C0.17 -20.71, 0.74 -3.99, 0.83 0.77 M-1.69 -0.54 C-2.08 3.06, -1.43 17.53, -0.71 23.3 C0.02 29.07, -0.37 31.84, 2.65 34.07 C5.67 36.29, 10.17 36.32, 17.43 36.64 C24.68 36.97, 36.4 35.67, 46.17 36.02 C55.94 36.36, 69.34 39.08, 76.06 38.72 C82.78 38.36, 84.36 37.1, 86.5 33.83 C88.64 30.57, 88.51 24.93, 88.89 19.13 C89.27 13.33, 89.26 4.38, 88.79 -0.95 C88.32 -6.27, 88.21 -10.47, 86.06 -12.82 C83.92 -15.17, 79.11 -14.57, 75.93 -15.07 C72.75 -15.57, 70.54 -15.13, 66.97 -15.82 C63.4 -16.5, 56.95 -16.08, 54.5 -19.18 C52.06 -22.28, 52.73 -29.03, 52.31 -34.43 C51.89 -39.83, 53.67 -48.44, 51.99 -51.6 C50.31 -54.75, 44.79 -53.84, 42.23 -53.37 C39.68 -52.91, 37.73 -52.37, 36.66 -48.8 C35.59 -45.24, 36.1 -37.48, 35.79 -31.99 C35.47 -26.51, 36.57 -18.79, 34.77 -15.9 C32.97 -13, 27.74 -14.59, 24.97 -14.63 C22.2 -14.68, 19.58 -13.2, 18.13 -16.15 C16.68 -19.09, 16.52 -26.63, 16.27 -32.3 C16.01 -37.97, 17.76 -46.53, 16.6 -50.14 C15.45 -53.76, 11.87 -54.3, 9.34 -53.99 C6.81 -53.68, 2.77 -52.4, 1.44 -48.31 C0.11 -44.22, 1.77 -37.63, 1.37 -29.46 C0.98 -21.28, -0.47 -4.4, -0.94 0.73" stroke="#000000" stroke-width="1" fill="none"></path></g></g><mask></mask><g stroke-linecap="round"><g transform="translate(447.5294140817076 578.5045976364229) rotate(0 8.926242029489345 3.537647910950909)" fill-rule="evenodd"><path d="M1.58 -1.07 L0.84 -2.5 L4.49 -3.25 L10.91 -3.22 L15.23 -4.5 L18.41 10.55 L4.52 11.71 L1.67 11.6 L-0.43 -0.2" stroke="none" stroke-width="0" fill="#ffff" fill-rule="evenodd"></path><path d="M0 -0.78 C0.45 -1.34, 1.61 -2.24, 2.55 -3.04 C3.49 -3.84, 4.09 -5.09, 5.65 -5.57 C7.2 -6.04, 10.01 -6.19, 11.89 -5.89 C13.77 -5.59, 15.78 -4.84, 16.92 -3.75 C18.05 -2.66, 18.46 -1.04, 18.69 0.65 C18.91 2.33, 18.78 4.4, 18.28 6.37 C17.77 8.34, 16.7 11.47, 15.65 12.48 C14.61 13.5, 13.52 12.46, 12.01 12.48 C10.51 12.5, 8.55 12.76, 6.63 12.6 C4.72 12.44, 1.45 12.62, 0.54 11.51 C-0.38 10.39, 1.11 7.87, 1.14 5.92 C1.17 3.97, 0.81 0.88, 0.69 -0.19 M-1.46 1.43 C-1.09 0.47, 0.94 -3.94, 1.99 -4.98 C3.05 -6.01, 3.19 -4.71, 4.86 -4.78 C6.53 -4.84, 10.23 -5.54, 12.04 -5.37 C13.85 -5.2, 14.87 -5.08, 15.71 -3.74 C16.54 -2.4, 16.45 0.62, 17.05 2.65 C17.65 4.68, 19.2 6.77, 19.31 8.45 C19.41 10.12, 18.65 12.29, 17.7 12.71 C16.76 13.13, 15.88 11.08, 13.64 10.98 C11.41 10.87, 6.48 11.78, 4.28 12.07 C2.08 12.35, 1.15 13.84, 0.46 12.69 C-0.23 11.54, -0.02 7.46, 0.12 5.16 C0.25 2.85, 1.32 -0.09, 1.28 -1.12" stroke="#000000" stroke-width="1" fill="none"></path></g></g><mask></mask><g stroke-linecap="round"><g transform="translate(550.5496515744732 319.8387096881231) rotate(358.11927751539235 -1.3667696126465216 106.75952724661886)"><path d="M-0.61 -0.84 C-1.31 34.99, -2.73 178.49, -3.55 214.36 M1.27 1.33 C0.44 36.91, -3.26 177.61, -4 212.83" stroke="#1e1e1e" stroke-width="1" fill="none"></path></g><g transform="translate(550.5496515744732 319.8387096881231) rotate(358.11927751539235 -1.3667696126465216 106.75952724661886)"><path d="M7.88 29.06 C7.84 15.77, 4.41 6.62, -2.6 0.16 M8.63 27.48 C5.08 18.21, 2.23 7.99, -0.31 -1.15" stroke="#1e1e1e" stroke-width="1" fill="none"></path></g><g transform="translate(550.5496515744732 319.8387096881231) rotate(358.11927751539235 -1.3667696126465216 106.75952724661886)"><path d="M-12.64 28.79 C-5.48 15.7, -1.71 6.65, -2.6 0.16 M-11.89 27.22 C-8.11 18.09, -3.63 7.97, -0.31 -1.15" stroke="#1e1e1e" stroke-width="1" fill="none"></path></g><g transform="translate(550.5496515744732 319.8387096881231) rotate(358.11927751539235 -1.3667696126465216 106.75952724661886)"><path d="M-14.99 185.99 C-8.48 192.71, -5.08 203.48, -5.99 213.83 M-14.23 184.41 C-11.21 195.46, -7.1 205.5, -3.7 212.52" stroke="#1e1e1e" stroke-width="1" fill="none"></path></g><g transform="translate(550.5496515744732 319.8387096881231) rotate(358.11927751539235 -1.3667696126465216 106.75952724661886)"><path d="M5.53 186.48 C4.84 192.92, 1.04 203.52, -5.99 213.83 M6.28 184.9 C1.98 195.72, -1.23 205.59, -3.7 212.52" stroke="#1e1e1e" stroke-width="1" fill="none"></path></g></g><mask></mask><g stroke-linecap="round"><g transform="translate(313.66626096118716 322.00782918110235) rotate(0 1.836062574618552 102.38185666808545)"><path d="M-0.71 0.94 C-0.06 34.95, 3.5 169.36, 4.38 203.01 M1.12 0.38 C1.61 34.66, 3.16 170.46, 3.67 204.38" stroke="#1e1e1e" stroke-width="1" fill="none"></path></g><g transform="translate(313.66626096118716 322.00782918110235) rotate(0 1.836062574618552 102.38185666808545)"><path d="M11.81 29.61 C6.25 20.43, 2.26 10.3, 0.01 0.85 M10.96 29.71 C7.48 23.37, 5.99 17.27, -0.88 0.91" stroke="#1e1e1e" stroke-width="1" fill="none"></path></g><g transform="translate(313.66626096118716 322.00782918110235) rotate(0 1.836062574618552 102.38185666808545)"><path d="M-8.71 30.12 C-7.31 20.88, -4.34 10.59, 0.01 0.85 M-9.55 30.22 C-8.73 23.62, -5.91 17.41, -0.88 0.91" stroke="#1e1e1e" stroke-width="1" fill="none"></path></g><g transform="translate(313.66626096118716 322.00782918110235) rotate(0 1.836062574618552 102.38185666808545)"><path d="M-5.4 177.07 C-4.14 187, -0.8 195.86, 4.39 204.29 M-6.24 177.18 C-5.29 182.42, -2.25 188.07, 3.5 204.35" stroke="#1e1e1e" stroke-width="1" fill="none"></path></g><g transform="translate(313.66626096118716 322.00782918110235) rotate(0 1.836062574618552 102.38185666808545)"><path d="M15.12 176.81 C9.42 186.7, 5.8 195.65, 4.39 204.29 M14.28 176.91 C10.92 182.36, 9.66 188.07, 3.5 204.35" stroke="#1e1e1e" stroke-width="1" fill="none"></path></g></g><mask></mask><g stroke-linecap="round"><g transform="translate(431.7468431460817 931.0814510579919) rotate(0 0.6882000543337199 66.90804861842514)"><path d="M-0.95 -0.36 C-1.01 22.02, -0.29 111.42, 0.1 133.83 M0.75 -1.59 C1.02 21.03, 2.31 112.54, 2.33 135.41" stroke="#1e1e1e" stroke-width="1" fill="none"></path></g><g transform="translate(431.7468431460817 931.0814510579919) rotate(0 0.6882000543337199 66.90804861842514)"><path d="M8.89 26.25 C6.17 18.84, 3.08 8.04, -2.54 0.9 M8.88 27.79 C5.43 18.21, 2.56 10.36, -1.05 -0.05" stroke="#1e1e1e" stroke-width="1" fill="none"></path></g><g transform="translate(431.7468431460817 931.0814510579919) rotate(0 0.6882000543337199 66.90804861842514)"><path d="M-11.63 26.38 C-7.4 19.09, -3.55 8.25, -2.54 0.9 M-11.64 27.92 C-8.5 18.21, -4.78 10.32, -1.05 -0.05" stroke="#1e1e1e" stroke-width="1" fill="none"></path></g><g transform="translate(431.7468431460817 931.0814510579919) rotate(0 0.6882000543337199 66.90804861842514)"><path d="M-8.76 105.78 C-4.6 117.58, -0.6 125.82, 0.75 136.66 M-8.78 107.33 C-5.91 115.72, -2.06 125.92, 2.23 135.71" stroke="#1e1e1e" stroke-width="1" fill="none"></path></g><g transform="translate(431.7468431460817 931.0814510579919) rotate(0 0.6882000543337199 66.90804861842514)"><path d="M11.76 105.61 C8.98 117.3, 6.03 125.6, 0.75 136.66 M11.75 107.15 C8.02 115.68, 5.28 125.95, 2.23 135.71" stroke="#1e1e1e" stroke-width="1" fill="none"></path></g></g><mask></mask><g stroke-linecap="round"><g transform="translate(425.3268883327934 707.5995248188622) rotate(0 1.1287816340304744 55.306541481455156)"><path d="M0.79 -0.35 C1.24 18.31, 2.21 92.31, 2.52 111.02 M-0.26 -1.57 C0.06 17.31, 1.23 93.03, 1.59 112.19" stroke="#1e1e1e" stroke-width="1" fill="none"></path></g><g transform="translate(425.3268883327934 707.5995248188622) rotate(0 1.1287816340304744 55.306541481455156)"><path d="M10.92 27.76 C7.49 20.08, 5.98 11.58, 1.73 -0.07 M11.32 27.84 C8.82 18.43, 5.7 10.29, 1.14 -0.31" stroke="#1e1e1e" stroke-width="1" fill="none"></path></g><g transform="translate(425.3268883327934 707.5995248188622) rotate(0 1.1287816340304744 55.306541481455156)"><path d="M-9.6 28.08 C-7.22 20.17, -2.92 11.58, 1.73 -0.07 M-9.2 28.16 C-5.24 18.83, -1.91 10.59, 1.14 -0.31" stroke="#1e1e1e" stroke-width="1" fill="none"></path></g><g transform="translate(425.3268883327934 707.5995248188622) rotate(0 1.1287816340304744 55.306541481455156)"><path d="M-9.72 84.25 C-7.52 92.29, -2.95 99.66, 2.54 112.46 M-9.32 84.34 C-5.51 92.74, -1.89 102.24, 1.95 112.23" stroke="#1e1e1e" stroke-width="1" fill="none"></path></g><g transform="translate(425.3268883327934 707.5995248188622) rotate(0 1.1287816340304744 55.306541481455156)"><path d="M10.8 83.9 C7.19 92.18, 5.94 99.64, 2.54 112.46 M11.2 83.99 C8.55 92.32, 5.72 101.93, 1.95 112.23" stroke="#1e1e1e" stroke-width="1" fill="none"></path></g></g><mask></mask><g stroke-linecap="round"><g transform="translate(546.739764609507 116.04166565389852) rotate(0 -0.24683496688555806 47.789453582180016)"><path d="M0.86 -1.16 C0.8 14.8, -0.29 79.39, -0.3 95.31 M-0.15 0.84 C-0.38 17.04, -1.46 81.04, -1.34 96.74" stroke="#1e1e1e" stroke-width="1" fill="none"></path></g><g transform="translate(546.739764609507 116.04166565389852) rotate(0 -0.24683496688555806 47.789453582180016)"><path d="M8.82 26.85 C7.56 20.24, 2.99 11.93, -1.04 0.56 M11.54 26.84 C7.18 17.74, 4.97 7.88, 0.67 -0.55" stroke="#1e1e1e" stroke-width="1" fill="none"></path></g><g transform="translate(546.739764609507 116.04166565389852) rotate(0 -0.24683496688555806 47.789453582180016)"><path d="M-11.7 26.59 C-6.76 19.91, -5.13 11.68, -1.04 0.56 M-8.98 26.58 C-6.51 17.52, -1.89 7.75, 0.67 -0.55" stroke="#1e1e1e" stroke-width="1" fill="none"></path></g><g transform="translate(546.739764609507 116.04166565389852) rotate(0 -0.24683496688555806 47.789453582180016)"><path d="M-13.36 68.18 C-8.81 78.52, -7.35 87.29, -3.24 98.47 M-10.63 68.17 C-8.43 77.86, -3.99 86.83, -1.53 97.35" stroke="#1e1e1e" stroke-width="1" fill="none"></path></g><g transform="translate(546.739764609507 116.04166565389852) rotate(0 -0.24683496688555806 47.789453582180016)"><path d="M7.16 68.32 C5.51 78.76, 0.78 87.49, -3.24 98.47 M9.89 68.3 C5.26 78, 2.87 86.92, -1.53 97.35" stroke="#1e1e1e" stroke-width="1" fill="none"></path></g></g><mask></mask><g stroke-linecap="round"><g transform="translate(316.75769217946106 121.36036463614107) rotate(0 -0.04870550790690231 45.70852480528259)"><path d="M1.04 0.23 C1.03 15.46, -0.2 76.67, -0.31 92.11 M0.13 -0.69 C0 14.1, -1.14 74.87, -1.14 90.18" stroke="#1e1e1e" stroke-width="1" fill="none"></path></g><g transform="translate(316.75769217946106 121.36036463614107) rotate(0 -0.04870550790690231 45.70852480528259)"><path d="M11.27 28.94 C8.54 22.21, 7.07 12.17, 2.44 -1.68 M10.23 28.76 C7.24 20.5, 6.06 11.73, 0.8 0.5" stroke="#1e1e1e" stroke-width="1" fill="none"></path></g><g transform="translate(316.75769217946106 121.36036463614107) rotate(0 -0.04870550790690231 45.70852480528259)"><path d="M-9.25 28.63 C-6.2 21.82, -1.9 11.86, 2.44 -1.68 M-10.29 28.45 C-7.38 20.32, -2.66 11.63, 0.8 0.5" stroke="#1e1e1e" stroke-width="1" fill="none"></path></g><g transform="translate(316.75769217946106 121.36036463614107) rotate(0 -0.04870550790690231 45.70852480528259)"><path d="M-10.72 62.24 C-7.53 71.28, -3.43 77.18, 0.26 88.27 M-11.76 62.06 C-8.89 70.13, -4.38 77.64, -1.38 90.44" stroke="#1e1e1e" stroke-width="1" fill="none"></path></g><g transform="translate(316.75769217946106 121.36036463614107) rotate(0 -0.04870550790690231 45.70852480528259)"><path d="M9.8 62.46 C7.21 71.62, 5.54 77.45, 0.26 88.27 M8.76 62.28 C5.72 70.25, 4.34 77.7, -1.38 90.44" stroke="#1e1e1e" stroke-width="1" fill="none"></path></g></g><mask></mask><g stroke-linecap="round" transform="translate(695.0685283372144 571.6214933402207) rotate(0 80.89618400249367 48.431268054124416)"><path d="M24.22 0 M24.22 0 C50.98 -1.28, 72.93 -0.56, 137.58 0 M24.22 0 C63.2 -0.93, 102.13 -0.01, 137.58 0 M137.58 0 C152.35 1.91, 160.29 8.22, 161.79 24.22 M137.58 0 C153.87 1.6, 163.07 7.32, 161.79 24.22 M161.79 24.22 C162.25 37.58, 161.87 48.02, 161.79 72.65 M161.79 24.22 C162.37 36.43, 162.34 49.14, 161.79 72.65 M161.79 72.65 C163.78 88.27, 153.24 96.17, 137.58 96.86 M161.79 72.65 C161.1 88.28, 154.59 96.35, 137.58 96.86 M137.58 96.86 C106.18 95.16, 70.97 97.6, 24.22 96.86 M137.58 96.86 C112.8 95.46, 88.81 97.13, 24.22 96.86 M24.22 96.86 C7.71 96.65, -0.17 88.64, 0 72.65 M24.22 96.86 C9.05 94.79, 1.32 90.06, 0 72.65 M0 72.65 C-0.67 61.21, 1.56 48.93, 0 24.22 M0 72.65 C-0.18 57.1, -1.35 42.65, 0 24.22 M0 24.22 C-0.16 9.73, 7.96 -0.17, 24.22 0 M0 24.22 C2.06 6.99, 6.85 -0.18, 24.22 0" stroke="#1e1e1e" stroke-width="1" fill="none"></path></g><g transform="translate(705.2647916854113 607.5527613943451) rotate(0 70.69992065429688 12.5)"><text x="70.69992065429688" y="0" font-family="Virgil, Segoe UI Emoji" font-size="20px" fill="#1e1e1e" text-anchor="middle" style="white-space: pre;" direction="ltr" dominant-baseline="text-before-edge">Worker Service</text></g><g stroke-linecap="round" transform="translate(10 565.6551412344655) rotate(0 80.89618400249367 48.431268054124416)"><path d="M24.22 0 M24.22 0 C60.47 2.48, 94.13 -0.78, 137.58 0 M24.22 0 C67.35 1.35, 109.05 1.37, 137.58 0 M137.58 0 C155.56 1.81, 160.54 9.87, 161.79 24.22 M137.58 0 C152.97 0.93, 163.86 8.4, 161.79 24.22 M161.79 24.22 C162.97 41.06, 161.72 60.36, 161.79 72.65 M161.79 24.22 C161.44 37.63, 161.47 50.62, 161.79 72.65 M161.79 72.65 C162.89 87.77, 153.51 98.42, 137.58 96.86 M161.79 72.65 C161.8 86.57, 154.24 96.45, 137.58 96.86 M137.58 96.86 C106.28 98.24, 72.07 96.33, 24.22 96.86 M137.58 96.86 C100.09 97.63, 62.09 97.86, 24.22 96.86 M24.22 96.86 C7.13 95.41, -1.81 89.07, 0 72.65 M24.22 96.86 C9.15 99.15, -2.03 88.57, 0 72.65 M0 72.65 C0.2 51.44, -0.86 33.85, 0 24.22 M0 72.65 C0.97 56.83, 0.51 42.4, 0 24.22 M0 24.22 C-0.37 6.3, 9.59 -1.54, 24.22 0 M0 24.22 C-0.06 6.13, 7.78 0.24, 24.22 0" stroke="#1e1e1e" stroke-width="1" fill="none"></path></g><g transform="translate(20.196263348196908 601.58640928859) rotate(0 70.69992065429688 12.5)"><text x="70.69992065429688" y="0" font-family="Virgil, Segoe UI Emoji" font-size="20px" fill="#1e1e1e" text-anchor="middle" style="white-space: pre;" direction="ltr" dominant-baseline="text-before-edge">Worker Service</text></g><g stroke-linecap="round"><g transform="translate(598.2059922289653 623.7782435523548) rotate(0 44.40778991064781 -0.5268006080550549)"><path d="M-0.1 1.17 C14.71 0.91, 73.46 -1.6, 88.3 -2.22 M-1.61 0.74 C13.61 0.73, 75.51 -0.36, 90.42 -0.74" stroke="#1e1e1e" stroke-width="1" fill="none"></path></g><g transform="translate(598.2059922289653 623.7782435523548) rotate(0 44.40778991064781 -0.5268006080550549)"><path d="M29.64 -11.99 C20.45 -8.12, 12.81 -3.23, 1.37 2.6 M27.84 -9.25 C16.67 -6.61, 6.45 -1.36, 0.8 1.85" stroke="#1e1e1e" stroke-width="1" fill="none"></path></g><g transform="translate(598.2059922289653 623.7782435523548) rotate(0 44.40778991064781 -0.5268006080550549)"><path d="M30.41 8.52 C21.13 7.2, 13.29 6.91, 1.37 2.6 M28.61 11.26 C17.16 5.77, 6.64 2.9, 0.8 1.85" stroke="#1e1e1e" stroke-width="1" fill="none"></path></g><g transform="translate(598.2059922289653 623.7782435523548) rotate(0 44.40778991064781 -0.5268006080550549)"><path d="M64.4 8.24 C69.42 6.55, 75.87 5.86, 91.89 0.69 M62.6 10.98 C73.54 5.11, 85.41 1.59, 91.32 -0.06" stroke="#1e1e1e" stroke-width="1" fill="none"></path></g><g transform="translate(598.2059922289653 623.7782435523548) rotate(0 44.40778991064781 -0.5268006080550549)"><path d="M63.98 -12.28 C69 -8.78, 75.55 -4.29, 91.89 0.69 M62.18 -9.53 C73.26 -7.28, 85.29 -2.67, 91.32 -0.06" stroke="#1e1e1e" stroke-width="1" fill="none"></path></g></g><mask></mask><g stroke-linecap="round"><g transform="translate(176.05006189985522 619.9641770794234) rotate(0 36.29364027857582 0.3429672712806564)"><path d="M-1.12 -0.62 C11.08 -0.89, 61.16 -0.98, 73.7 -0.98 M0.5 1.66 C12.52 1.46, 60.69 0.27, 72.89 0.06" stroke="#1e1e1e" stroke-width="1" fill="none"></path></g><g transform="translate(176.05006189985522 619.9641770794234) rotate(0 36.29364027857582 0.3429672712806564)"><path d="M25.97 -10.62 C15.86 -6.61, 6.85 -4.35, -2 -2.61 M27.73 -11.49 C18.19 -8.13, 8.2 -3.33, -2.02 -0.73" stroke="#1e1e1e" stroke-width="1" fill="none"></path></g><g transform="translate(176.05006189985522 619.9641770794234) rotate(0 36.29364027857582 0.3429672712806564)"><path d="M26.09 9.9 C15.83 6.9, 6.78 2.14, -2 -2.61 M27.85 9.03 C18.18 5.31, 8.14 3.01, -2.02 -0.73" stroke="#1e1e1e" stroke-width="1" fill="none"></path></g><g transform="translate(176.05006189985522 619.9641770794234) rotate(0 36.29364027857582 0.3429672712806564)"><path d="M43.89 11.35 C52.84 8.61, 63.01 3.59, 72 -1.93 M45.64 10.48 C55.39 6.01, 64.77 3.45, 71.99 -0.04" stroke="#1e1e1e" stroke-width="1" fill="none"></path></g><g transform="translate(176.05006189985522 619.9641770794234) rotate(0 36.29364027857582 0.3429672712806564)"><path d="M43.45 -9.17 C52.66 -4.89, 62.98 -2.89, 72 -1.93 M45.2 -10.04 C55.19 -7.42, 64.73 -2.9, 71.99 -0.04" stroke="#1e1e1e" stroke-width="1" fill="none"></path></g></g><mask></mask><g stroke-linecap="round"><g transform="translate(785.5445236031611 442.8262530204612) rotate(0 1.071274592977602 61.793752999124195)"><path d="M0.7 -0.92 C0.59 19.97, 0.22 103.71, 0.25 124.51 M-0.39 1.21 C-0.2 21.86, 2.47 102.85, 2.53 122.93" stroke="#1e1e1e" stroke-width="1" fill="none"></path></g><g transform="translate(785.5445236031611 442.8262530204612) rotate(0 1.071274592977602 61.793752999124195)"><path d="M9.31 25.95 C8.96 16.44, 4.06 7.89, 2.3 -1.21 M10.76 28.29 C7.2 18.16, 4.47 10, -0.1 -1.44" stroke="#1e1e1e" stroke-width="1" fill="none"></path></g><g transform="translate(785.5445236031611 442.8262530204612) rotate(0 1.071274592977602 61.793752999124195)"><path d="M-11.21 25.87 C-3.86 16.27, -1.05 7.74, 2.3 -1.21 M-9.76 28.2 C-6.81 18.19, -3.04 10.06, -0.1 -1.44" stroke="#1e1e1e" stroke-width="1" fill="none"></path></g><g transform="translate(785.5445236031611 442.8262530204612) rotate(0 1.071274592977602 61.793752999124195)"><path d="M-9.82 93.59 C-2.7 105.05, 0.27 117.59, 4.13 122.64 M-8.37 95.93 C-4.74 103.7, -0.82 113.37, 1.73 122.41" stroke="#1e1e1e" stroke-width="1" fill="none"></path></g><g transform="translate(785.5445236031611 442.8262530204612) rotate(0 1.071274592977602 61.793752999124195)"><path d="M10.69 93.18 C10.12 104.92, 5.39 117.61, 4.13 122.64 M12.14 95.52 C9.28 103.34, 6.69 113.13, 1.73 122.41" stroke="#1e1e1e" stroke-width="1" fill="none"></path></g></g><mask></mask><g stroke-linecap="round"><g transform="translate(88.78335400311391 438.98874786214003) rotate(0 0.6062557540059856 61.08115651044653)"><path d="M-0.17 0.16 C0.3 20.38, 2.77 101.32, 2.94 121.76 M-1.72 -0.8 C-1.33 19.53, 1.7 102.71, 2.5 122.96" stroke="#1e1e1e" stroke-width="1" fill="none"></path></g><g transform="translate(88.78335400311391 438.98874786214003) rotate(0 0.6062557540059856 61.08115651044653)"><path d="M11.12 29.69 C6.27 17.54, 4.62 12.41, -1.33 0.1 M10.66 28.11 C6.67 20.01, 4.44 11.44, 0.34 -0.62" stroke="#1e1e1e" stroke-width="1" fill="none"></path></g><g transform="translate(88.78335400311391 438.98874786214003) rotate(0 0.6062557540059856 61.08115651044653)"><path d="M-9.39 30.25 C-7.93 17.95, -3.26 12.65, -1.33 0.1 M-9.86 28.67 C-7.71 20.23, -3.81 11.5, 0.34 -0.62" stroke="#1e1e1e" stroke-width="1" fill="none"></path></g><g transform="translate(88.78335400311391 438.98874786214003) rotate(0 0.6062557540059856 61.08115651044653)"><path d="M-8.54 96.8 C-6.3 101.83, -1.07 113.85, 1.34 122.89 M-9 95.21 C-5.8 103.58, -1.36 111.67, 3.01 122.17" stroke="#1e1e1e" stroke-width="1" fill="none"></path></g><g transform="translate(88.78335400311391 438.98874786214003) rotate(0 0.6062557540059856 61.08115651044653)"><path d="M11.97 96.03 C7.89 101.27, 6.81 113.53, 1.34 122.89 M11.5 94.45 C8.58 103.21, 6.89 111.53, 3.01 122.17" stroke="#1e1e1e" stroke-width="1" fill="none"></path></g></g><mask></mask><g stroke-linecap="round"><g transform="translate(636.2487823243101 258.2380646798707) rotate(0 73.93387757509583 5.763578055855589)"><path d="M-0.24 0.33 C17.52 -2.57, 82.71 -21.77, 107.7 -16.87 C132.68 -11.97, 142.99 21.98, 149.69 29.72 M-1.82 -0.54 C15.63 -3.83, 81.29 -23.88, 106.49 -18.62 C131.7 -13.36, 142.55 22.82, 149.41 31.02" stroke="#1e1e1e" stroke-width="1" fill="none"></path></g><g transform="translate(636.2487823243101 258.2380646798707) rotate(0 73.93387757509583 5.763578055855589)"><path d="M25.79 -16.33 C16.34 -7.7, 4.96 -4.41, -0.49 -1.61 M24.5 -15.71 C18.3 -11.83, 12.97 -8.72, 0.25 0.25" stroke="#1e1e1e" stroke-width="1" fill="none"></path></g><g transform="translate(636.2487823243101 258.2380646798707) rotate(0 73.93387757509583 5.763578055855589)"><path d="M30.02 3.75 C18.79 4.38, 5.73 -0.34, -0.49 -1.61 M28.73 4.38 C21.53 3.26, 15.16 1.39, 0.25 0.25" stroke="#1e1e1e" stroke-width="1" fill="none"></path></g><g transform="translate(636.2487823243101 258.2380646798707) rotate(0 73.93387757509583 5.763578055855589)"><path d="M127.18 10.7 C136.97 20.88, 144.82 25.63, 149.15 29.07 M125.88 11.32 C131.63 16.27, 138.27 20.29, 149.9 30.94" stroke="#1e1e1e" stroke-width="1" fill="none"></path></g><g transform="translate(636.2487823243101 258.2380646798707) rotate(0 73.93387757509583 5.763578055855589)"><path d="M145.05 0.61 C147.76 14.78, 148.49 23.54, 149.15 29.07 M143.76 1.23 C145.05 8.62, 147.25 15.14, 149.9 30.94" stroke="#1e1e1e" stroke-width="1" fill="none"></path></g></g><mask></mask><g stroke-linecap="round"><g transform="translate(89.91576032635851 292.0458011896451) rotate(0 67.76054417102847 -25.184399608163005)"><path d="M-0.81 -0.98 C3.22 -9.4, 2.16 -46.04, 25.01 -50.83 C47.87 -55.62, 117.89 -33.17, 136.33 -29.72 M0.97 1.13 C5.31 -7.14, 4.84 -44.79, 27.37 -49.7 C49.89 -54.62, 118.02 -31.8, 136.14 -28.38" stroke="#1e1e1e" stroke-width="1" fill="none"></path></g><g transform="translate(89.91576032635851 292.0458011896451) rotate(0 67.76054417102847 -25.184399608163005)"><path d="M-4.62 -32.03 C-3.57 -17.94, -1.38 -7.99, -1.4 -1.98 M-3.74 -31.86 C-3.4 -21.75, -2.25 -9.82, -0.29 0.01" stroke="#1e1e1e" stroke-width="1" fill="none"></path></g><g transform="translate(89.91576032635851 292.0458011896451) rotate(0 67.76054417102847 -25.184399608163005)"><path d="M15.12 -26.44 C8.85 -14.56, 3.71 -6.69, -1.4 -1.98 M16 -26.27 C9.73 -18.14, 4.22 -8.09, -0.29 0.01" stroke="#1e1e1e" stroke-width="1" fill="none"></path></g><g transform="translate(89.91576032635851 292.0458011896451) rotate(0 67.76054417102847 -25.184399608163005)"><path d="M104.65 -26.64 C116.06 -24.54, 128.53 -26.78, 135.54 -29.38 M105.53 -26.47 C115.51 -27.3, 125.99 -26.43, 136.65 -27.39" stroke="#1e1e1e" stroke-width="1" fill="none"></path></g><g transform="translate(89.91576032635851 292.0458011896451) rotate(0 67.76054417102847 -25.184399608163005)"><path d="M109.79 -46.51 C119.24 -37.07, 129.8 -31.92, 135.54 -29.38 M110.67 -46.34 C118.73 -40.48, 127.48 -32.91, 136.65 -27.39" stroke="#1e1e1e" stroke-width="1" fill="none"></path></g></g><mask></mask><g stroke-linecap="round"><g transform="translate(522.3250690993347 868.4927851201876) rotate(0 76.43133788250566 0.8661433161882997)"><path d="M-0.43 1.02 C24.65 1.06, 125.85 0.42, 151.07 0.07 M1.54 0.51 C26.94 0.77, 128.02 1.78, 153.3 1.65" stroke="#1e1e1e" stroke-width="1" fill="none"></path></g><g transform="translate(522.3250690993347 868.4927851201876) rotate(0 76.43133788250566 0.8661433161882997)"><path d="M29.41 -10.93 C18.01 -7.73, 6.32 -0.78, -1.8 -0.1 M27.39 -9.45 C17.78 -5.76, 9.96 -3.5, -0.22 0.56" stroke="#1e1e1e" stroke-width="1" fill="none"></path></g><g transform="translate(522.3250690993347 868.4927851201876) rotate(0 76.43133788250566 0.8661433161882997)"><path d="M29.52 9.59 C18.1 5.64, 6.38 5.44, -1.8 -0.1 M27.5 11.07 C18.05 8.23, 10.2 3.96, -0.22 0.56" stroke="#1e1e1e" stroke-width="1" fill="none"></path></g><g transform="translate(522.3250690993347 868.4927851201876) rotate(0 76.43133788250566 0.8661433161882997)"><path d="M126.77 10.26 C135.04 6.5, 143.01 6.28, 151.93 0.53 M124.75 11.75 C133.28 9.39, 143.39 5.11, 153.5 1.19" stroke="#1e1e1e" stroke-width="1" fill="none"></path></g><g transform="translate(522.3250690993347 868.4927851201876) rotate(0 76.43133788250566 0.8661433161882997)"><path d="M126.85 -10.26 C135.07 -6.87, 143.01 0.07, 151.93 0.53 M124.83 -8.77 C133.12 -4.6, 143.22 -2.35, 153.5 1.19" stroke="#1e1e1e" stroke-width="1" fill="none"></path></g></g><mask></mask></svg>